<?xml version="1.0" encoding="UTF-8" standalone="no"?>
<!DOCTYPE svg PUBLIC "-//W3C//DTD SVG 1.1//EN" "http://www.w3.org/Graphics/SVG/1.1/DTD/svg11.dtd">
<svg width="100%" height="100%" viewBox="0 0 1024 803" version="1.1" xmlns="http://www.w3.org/2000/svg" xmlns:xlink="http://www.w3.org/1999/xlink" xml:space="preserve" xmlns:serif="http://www.serif.com/" style="fill-rule:evenodd;clip-rule:evenodd;stroke-linejoin:round;stroke-miterlimit:2;">
    <g transform="matrix(1,0,0,1,-2312.6,-110.794)">
        <g id="Solid" transform="matrix(1,0,0,1,2312.6,0)">
            <clipPath id="_clip1">
                <rect x="0" y="110.794" width="1024" height="802.411"/>
            </clipPath>
            <g clip-path="url(#_clip1)">
                <rect x="0" y="0" width="1024" height="1024" style="fill:none;"/>
                <g transform="matrix(2.136,0,0,2.08927,627.13,389.136)">
                    <path d="M170.79,238.99L-278.59,238.99L-189.148,109.152L-182.41,103.03L-163.351,39.801L-118.442,5.337L-109.646,0.184L-29.063,-121.375L29.87,-40.759L53.669,49.529L89.247,58.807L96.925,91.807L138.102,128.716L170.79,238.99Z" style="fill:rgb(42,159,187);fill-rule:nonzero;"/>
                </g>
                <g transform="matrix(-1.0274,0,0,1,3535.27,49.0823)">
                    <path d="M2889.27,110.936L3041.01,349.413L3153.37,434.368L3193.89,576.121L3215.16,585.555L3359.69,799.582L3246.17,710.434L3223.7,814.9L3162.92,597.007L3072.14,757.611L3093.5,574.615L3026.2,476.098L2996.35,634.579L2940.86,408.761L2856.69,384.623L2900.92,304.612L2879.68,245.285L2889.27,110.936Z" style="fill:white;"/>
                </g>
            </g>
        </g>
    </g>
</svg>
