<?xml version="1.0" encoding="UTF-8" standalone="no"?>
<!DOCTYPE svg PUBLIC "-//W3C//DTD SVG 1.1//EN" "http://www.w3.org/Graphics/SVG/1.1/DTD/svg11.dtd">
<svg width="100%" height="100%" viewBox="0 0 1024 1024" version="1.1" xmlns="http://www.w3.org/2000/svg" xmlns:xlink="http://www.w3.org/1999/xlink" xml:space="preserve" xmlns:serif="http://www.serif.com/" style="fill-rule:evenodd;clip-rule:evenodd;stroke-linejoin:round;stroke-miterlimit:2;">
    <g transform="matrix(1,0,0,1,0,-1087.89)">
        <g id="Simple" transform="matrix(1,0,0,1,0,1087.89)">
            <rect x="0" y="0" width="1024" height="1024" style="fill:none;"/>
            <g transform="matrix(2.1283,0,0,2.08174,626.716,350.644)">
                <path d="M0,155.02L80.45,123.95L-7.98,147.1L-37.12,238.99L-137.68,238.99L-148.33,222.25L-94.97,176.36L-161.73,219.81L-149.53,238.99L-278.59,238.99L-229.765,175.905L-222.56,140.36L-189.148,109.152L-178.534,150.087L-144.973,158.15L-173.327,146.476L-182.41,103.03L-166.71,25.22L-136.96,4.77L-35.777,90.17L-101.612,13.667L-40.977,-1.961L24.26,-68.4L72.92,-74.39L52.29,-30.37L80.71,47.39L112.67,75.88L104.82,133.67L91.043,189.3L112.62,142.26L153.606,171.736L170.79,238.99L-26.64,238.99L0,155.02Z" style="fill:rgb(42,159,187);fill-rule:nonzero;"/>
            </g>
        </g>
    </g>
</svg>
