<?xml version="1.0" encoding="UTF-8" standalone="no"?>
<!DOCTYPE svg PUBLIC "-//W3C//DTD SVG 1.1//EN" "http://www.w3.org/Graphics/SVG/1.1/DTD/svg11.dtd">
<svg width="100%" height="100%" viewBox="0 0 1024 1024" version="1.1" xmlns="http://www.w3.org/2000/svg" xmlns:xlink="http://www.w3.org/1999/xlink" xml:space="preserve" xmlns:serif="http://www.serif.com/" style="fill-rule:evenodd;clip-rule:evenodd;stroke-linejoin:round;stroke-miterlimit:2;">
    <g transform="matrix(2.1283,0,0,2.08174,626.716,192.93)">
        <path d="M0,155.02L80.45,123.95L-7.98,147.1L-37.12,238.99L-137.68,238.99L-148.33,222.25L-94.97,176.36L-161.73,219.81L-149.53,238.99L-278.59,238.99L-264.88,209.39L-216.73,179.01L-218.3,168.59L-222.56,140.36L-189.148,109.152L-178.534,150.087L-144.973,158.15L-173.327,146.476L-182.41,103.03L-166.71,25.22L-136.96,4.77L-96.32,36.7L-35.777,90.17L-89.06,30.02L-67.12,9.81L-47.46,7.57L-35.12,6.17L24.26,-68.4L59.3,-83.97L72.92,-74.39L52.29,-30.37L56.73,-18.21L80.71,47.39L92.36,57.77L112.67,75.88L104.82,133.67L104.19,175.51L112.62,142.26L168.28,203.56L162.88,219.77L170.79,238.99L-26.64,238.99L0,155.02Z" style="fill:rgb(0,112,186);fill-rule:nonzero;"/>
    </g>
    <g transform="matrix(0.882018,0,0,0.882018,-0.539886,93.2665)">
        <path d="M192.396,835.262C191.499,835.262 190.224,835.221 188.572,835.14C186.92,835.059 185.263,834.934 183.6,834.763L206.874,741.842C207.196,740.129 209.034,739.273 212.388,739.273C213.546,739.273 214.723,739.316 215.917,739.402C217.111,739.488 218.115,739.617 218.93,739.789L242.221,832.674C242.403,833.542 242.12,834.19 241.374,834.619C240.628,835.047 238.855,835.262 236.055,835.262C235.138,835.262 234.012,835.242 232.678,835.201C231.343,835.161 229.768,835.095 227.954,835.004L217.075,785.077C216.548,782.428 216.025,779.62 215.503,776.654C214.982,773.688 214.522,770.681 214.122,767.634C213.723,764.586 213.396,761.762 213.144,759.161C212.892,761.762 212.547,764.586 212.107,767.634C211.666,770.681 211.209,773.688 210.733,776.654C210.257,779.62 209.711,782.428 209.093,785.077L198.772,832.617C198.602,833.473 198.194,834.128 197.549,834.581C196.904,835.035 195.186,835.262 192.396,835.262ZM198.642,812.512L198.642,799.938L230.022,799.938L230.022,812.512L198.642,812.512Z" style="fill:rgb(0,112,186);fill-rule:nonzero;"/>
        <path d="M248.337,835.004L248.337,771.609C250.794,769.901 253.627,768.454 256.837,767.268C260.047,766.083 263.488,765.49 267.16,765.49C270.823,765.49 273.281,766.015 274.535,767.064C275.789,768.113 276.416,769.742 276.416,771.949C276.416,772.796 276.325,773.97 276.143,775.471C275.961,776.972 275.579,778.498 274.995,780.049C274.075,779.575 273.148,779.246 272.213,779.063C271.278,778.88 270.369,778.788 269.485,778.788C268.44,778.788 267.293,778.993 266.043,779.403C264.793,779.814 263.646,780.434 262.602,781.263L262.483,832.434C262.483,833.29 262.294,833.889 261.915,834.232C261.537,834.575 260.356,834.789 258.372,834.875C256.387,834.961 253.043,835.004 248.337,835.004Z" style="fill:rgb(0,112,186);fill-rule:nonzero;"/>
        <path d="M304.07,836.367C300.608,836.367 297.611,835.921 295.077,835.028C292.544,834.134 290.443,832.469 288.776,830.031C287.11,827.593 285.872,824.166 285.063,819.748C284.255,815.33 283.85,809.557 283.85,802.428C283.85,794.25 284.58,787.707 286.039,782.8C287.498,777.894 289.416,774.191 291.794,771.692C294.172,769.193 296.796,767.535 299.664,766.717C302.532,765.899 305.368,765.49 308.174,765.49C311.485,765.49 314.201,766.091 316.322,767.292C318.443,768.493 319.504,770.121 319.504,772.177C319.504,773.095 319.416,774.206 319.239,775.511C319.062,776.817 318.717,778.215 318.203,779.706C317.112,779.199 315.751,778.738 314.119,778.324C312.487,777.909 310.872,777.702 309.275,777.702C307.98,777.702 306.672,777.965 305.351,778.49C304.03,779.015 302.848,780.112 301.805,781.779C300.762,783.447 299.927,785.91 299.299,789.17C298.672,792.43 298.358,796.795 298.358,802.264C298.358,806.461 298.531,809.972 298.876,812.796C299.221,815.621 299.785,817.857 300.57,819.504C301.354,821.151 302.394,822.321 303.689,823.013C304.984,823.705 306.581,824.051 308.481,824.051C310.173,824.051 311.886,823.823 313.62,823.366C315.353,822.91 316.77,822.368 317.871,821.74C318.304,823.312 318.608,824.665 318.785,825.798C318.962,826.932 319.05,828.048 319.05,829.145C319.05,831.283 317.654,833.022 314.862,834.36C312.07,835.698 308.473,836.367 304.07,836.367Z" style="fill:rgb(0,112,186);fill-rule:nonzero;"/>
        <path d="M353.303,836.367C349.346,836.367 346.376,835.592 344.393,834.04C342.41,832.489 341.099,830.234 340.459,827.275C339.82,824.316 339.5,820.827 339.5,816.808L339.5,778.703L330.964,778.703C330.964,775.125 331.007,772.505 331.093,770.843C331.179,769.181 331.433,768.101 331.856,767.602C332.28,767.103 332.95,766.853 333.867,766.853L339.5,766.853L339.5,746.78C339.5,745.247 339.89,744.183 340.67,743.588C341.45,742.993 342.833,742.633 344.818,742.507C346.803,742.382 349.664,742.319 353.403,742.319L353.403,766.853L365.493,766.853C365.493,770.42 365.453,773.037 365.372,774.704C365.291,776.372 365.062,777.455 364.684,777.954C364.306,778.453 363.659,778.703 362.742,778.703L353.403,778.703L353.403,816.612C353.403,817.901 353.459,819.169 353.57,820.416C353.681,821.662 354.001,822.657 354.527,823.401C355.054,824.145 355.945,824.517 357.2,824.517C358.586,824.517 359.837,824.371 360.953,824.078C362.069,823.784 363.278,823.315 364.582,822.669C364.763,823.515 364.958,824.5 365.164,825.624C365.371,826.748 365.474,828.014 365.474,829.424C365.474,831.43 364.816,832.93 363.499,833.923C362.182,834.916 360.59,835.572 358.724,835.89C356.858,836.208 355.05,836.367 353.303,836.367Z" style="fill:rgb(0,112,186);fill-rule:nonzero;"/>
        <path d="M376.617,835.004L376.617,772.987C376.617,770.897 377.026,769.443 377.843,768.625C378.661,767.807 380.07,767.307 382.069,767.126C384.068,766.944 386.976,766.853 390.792,766.853L390.792,832.414C390.792,833.323 390.588,833.936 390.179,834.254C389.77,834.572 388.589,834.777 386.635,834.868C384.681,834.959 381.342,835.004 376.617,835.004ZM383.432,759.629C381.251,759.629 379.57,758.902 378.389,757.448C377.207,755.994 376.617,753.314 376.617,749.406C376.617,746.499 377.23,744.136 378.457,742.319C379.684,740.501 381.614,739.593 384.25,739.593C386.885,739.593 388.657,740.274 389.565,741.637C390.474,743 390.928,745.408 390.928,748.861C390.928,752.223 390.27,754.858 388.952,756.767C387.634,758.675 385.794,759.629 383.432,759.629Z" style="fill:rgb(0,112,186);fill-rule:nonzero;"/>
        <path d="M418.291,836.367C414.83,836.367 411.832,835.921 409.298,835.028C406.765,834.134 404.664,832.469 402.998,830.031C401.331,827.593 400.093,824.166 399.284,819.748C398.476,815.33 398.072,809.557 398.072,802.428C398.072,794.25 398.801,787.707 400.26,782.8C401.719,777.894 403.637,774.191 406.015,771.692C408.394,769.193 411.017,767.535 413.885,766.717C416.753,765.899 419.589,765.49 422.395,765.49C425.706,765.49 428.422,766.091 430.543,767.292C432.665,768.493 433.725,770.121 433.725,772.177C433.725,773.095 433.637,774.206 433.46,775.511C433.283,776.817 432.938,778.215 432.424,779.706C431.333,779.199 429.972,778.738 428.34,778.324C426.708,777.909 425.093,777.702 423.496,777.702C422.201,777.702 420.893,777.965 419.572,778.49C418.251,779.015 417.069,780.112 416.026,781.779C414.983,783.447 414.148,785.91 413.521,789.17C412.893,792.43 412.579,796.795 412.579,802.264C412.579,806.461 412.752,809.972 413.097,812.796C413.442,815.621 414.006,817.857 414.791,819.504C415.575,821.151 416.615,822.321 417.91,823.013C419.205,823.705 420.802,824.051 422.702,824.051C424.394,824.051 426.107,823.823 427.841,823.366C429.574,822.91 430.991,822.368 432.092,821.74C432.525,823.312 432.83,824.665 433.006,825.798C433.183,826.932 433.272,828.048 433.272,829.145C433.272,831.283 431.875,833.022 429.083,834.36C426.291,835.698 422.694,836.367 418.291,836.367Z" style="fill:rgb(0,112,186);fill-rule:nonzero;"/>
        <path d="M474.797,835.004L474.797,742.257C474.797,741.379 475.062,740.716 475.592,740.267C476.123,739.817 477.109,739.593 478.551,739.593L491.956,739.593C494.813,739.593 497.599,739.885 500.314,740.471C503.029,741.057 505.483,742.114 507.674,743.643C509.866,745.173 511.625,747.317 512.953,750.078C514.28,752.839 514.944,756.441 514.944,760.883C514.944,765.641 514.29,769.585 512.982,772.715C511.673,775.845 510.052,778.23 508.118,779.87C506.185,781.51 504.229,782.466 502.251,782.739C503.855,782.899 505.569,783.272 507.391,783.858C509.213,784.443 510.932,785.441 512.548,786.849C514.164,788.257 515.485,790.219 516.511,792.733C517.536,795.248 518.049,798.52 518.049,802.549C518.049,806.494 517.707,810.128 517.024,813.451C516.34,816.775 515.308,819.757 513.927,822.396C512.546,825.036 510.831,827.301 508.78,829.191C506.729,831.081 504.354,832.523 501.655,833.515C498.956,834.508 495.883,835.004 492.437,835.004L474.797,835.004ZM488.942,822.914L492.782,822.914C494.08,822.914 495.249,822.505 496.289,821.687C497.329,820.869 498.24,819.654 499.021,818.042C499.803,816.43 500.41,814.443 500.841,812.082C501.273,809.721 501.489,806.956 501.489,803.789C501.489,800.554 501.298,797.992 500.917,796.103C500.536,794.213 499.982,792.778 499.257,791.798C498.531,790.819 497.643,790.172 496.592,789.859C495.542,789.546 494.348,789.39 493.01,789.39L488.942,789.39L488.942,822.914ZM488.942,777.661L492.863,777.661C494.222,777.661 495.404,777.111 496.409,776.01C497.414,774.909 498.196,773.32 498.755,771.242C499.314,769.165 499.593,766.684 499.593,763.799C499.593,760.443 499.301,757.898 498.716,756.164C498.131,754.43 497.343,753.268 496.353,752.676C495.362,752.083 494.314,751.787 493.208,751.787L488.942,751.787L488.942,777.661Z" style="fill:rgb(0,112,186);fill-rule:nonzero;"/>
        <path d="M531.756,835.004L531.756,740.975C531.756,738.878 532.129,737.411 532.874,736.575C533.62,735.739 535.008,735.237 537.038,735.071C539.068,734.905 541.942,734.822 545.659,734.822L545.659,832.434C545.659,833.29 545.466,833.889 545.08,834.232C544.693,834.575 543.535,834.789 541.604,834.875C539.673,834.961 536.39,835.004 531.756,835.004Z" style="fill:rgb(0,112,186);fill-rule:nonzero;"/>
        <path d="M574.996,836.367C569.564,836.367 565.376,835.547 562.434,833.906C559.491,832.266 557.432,829.877 556.255,826.74C555.079,823.603 554.491,819.765 554.491,815.225L554.491,769.424C554.491,768.567 554.677,767.968 555.05,767.625C555.423,767.282 556.621,767.068 558.646,766.982C560.671,766.896 564.081,766.853 568.877,766.853L568.877,816.179C568.877,818.048 569.035,819.588 569.35,820.801C569.665,822.013 570.249,822.916 571.102,823.509C571.954,824.102 573.213,824.398 574.877,824.398C575.889,824.398 576.981,824.246 578.153,823.942C579.325,823.638 580.388,823.122 581.342,822.394L581.342,769.424C581.342,768.567 581.534,767.968 581.917,767.625C582.301,767.282 583.447,767.068 585.356,766.982C587.265,766.896 590.561,766.853 595.245,766.853L595.245,831.264C592.929,832.589 589.967,833.771 586.357,834.809C582.747,835.848 578.96,836.367 574.996,836.367Z" style="fill:rgb(0,112,186);fill-rule:nonzero;"/>
        <path d="M635.68,836.367C632.571,836.367 629.708,835.906 627.092,834.983C624.476,834.06 622.224,832.432 620.335,830.1C618.447,827.768 616.975,824.51 615.919,820.325C614.864,816.14 614.336,810.791 614.336,804.276C614.336,795.925 614.988,789.192 616.291,784.078C617.594,778.964 619.372,775.074 621.624,772.409C623.876,769.745 626.453,767.925 629.356,766.951C632.259,765.977 635.269,765.49 638.387,765.49C643.923,765.49 648.207,767.247 651.24,770.762C654.273,774.277 655.789,779.889 655.789,787.599C655.789,790.797 655.66,794.092 655.402,797.482C655.145,800.871 654.674,803.853 653.989,806.428C651.188,807.004 648.004,807.433 644.437,807.716C640.871,807.999 637.421,808.205 634.088,808.337C630.755,808.468 628.008,808.531 625.847,808.526C623.686,808.521 622.606,808.519 622.606,808.519L622.846,797.393C622.846,797.393 623.567,797.416 625.009,797.461C626.451,797.507 628.226,797.525 630.336,797.515C632.445,797.505 634.532,797.401 636.597,797.204C638.662,797.006 640.324,796.67 641.582,796.194C641.844,795.233 642.021,794.04 642.112,792.616C642.203,791.192 642.248,789.904 642.248,788.751C642.238,784.203 641.828,781.205 641.017,779.755C640.206,778.305 638.731,777.58 636.592,777.58C635.297,777.58 634.147,778.054 633.144,779.002C632.14,779.95 631.31,781.459 630.654,783.53C629.998,785.601 629.512,788.269 629.196,791.534C628.88,794.8 628.722,798.786 628.722,803.493C628.722,807.035 628.88,810.042 629.195,812.514C629.51,814.986 630.033,816.97 630.763,818.465C631.492,819.96 632.535,821.06 633.891,821.767C635.247,822.473 636.926,822.826 638.928,822.826C641.484,822.826 644.007,822.475 646.498,821.773C648.989,821.071 651.395,820.104 653.717,818.871C654.15,820.141 654.452,821.667 654.623,823.45C654.794,825.234 654.879,826.825 654.879,828.225C654.879,829.909 653.999,831.367 652.238,832.597C650.476,833.828 648.152,834.764 645.265,835.406C642.378,836.047 639.183,836.367 635.68,836.367Z" style="fill:rgb(0,112,186);fill-rule:nonzero;"/>
        <path d="M712.065,836.367C705.947,836.367 701.439,835.448 698.541,833.611C695.643,831.774 694.194,829.757 694.194,827.561C694.194,826.139 694.451,824.5 694.965,822.641C695.479,820.783 696.291,819.078 697.401,817.528C698.855,818.81 700.728,819.893 703.021,820.776C705.313,821.66 707.814,822.102 710.525,822.102C714.622,822.102 717.491,821.042 719.131,818.923C720.771,816.803 721.591,814.003 721.591,810.523C721.591,807.902 721.116,805.461 720.165,803.201C719.214,800.941 717.449,798.204 714.869,794.991L702.063,778.577C698.974,774.522 696.88,770.958 695.782,767.884C694.684,764.81 694.134,761.737 694.134,758.666C694.134,752.621 696.169,747.703 700.237,743.914C704.306,740.124 710.276,738.23 718.149,738.23C724.91,738.23 729.651,738.903 732.373,740.251C735.094,741.598 736.454,743.376 736.454,745.584C736.454,746.752 736.2,748.027 735.691,749.407C735.182,750.788 734.343,752.138 733.174,753.457C732.395,752.861 730.846,752.226 728.528,751.554C726.211,750.882 723.646,750.546 720.835,750.546C717.245,750.546 714.417,751.196 712.349,752.498C710.281,753.799 709.247,755.729 709.247,758.287C709.247,760.501 709.687,762.538 710.567,764.397C711.448,766.257 712.793,768.414 714.603,770.868L728.229,787.633C731.594,791.803 733.847,795.584 734.989,798.977C736.13,802.369 736.701,806.071 736.701,810.082C736.701,814.647 735.982,818.928 734.543,822.924C733.104,826.921 730.62,830.161 727.092,832.643C723.564,835.126 718.555,836.367 712.065,836.367Z" style="fill:rgb(0,112,186);fill-rule:nonzero;"/>
        <path d="M768.479,836.367C764.522,836.367 761.552,835.592 759.569,834.04C757.586,832.489 756.275,830.234 755.635,827.275C754.996,824.316 754.676,820.827 754.676,816.808L754.676,778.703L746.14,778.703C746.14,775.125 746.183,772.505 746.269,770.843C746.355,769.181 746.609,768.101 747.032,767.602C747.456,767.103 748.126,766.853 749.043,766.853L754.676,766.853L754.676,746.78C754.676,745.247 755.066,744.183 755.846,743.588C756.626,742.993 758.009,742.633 759.994,742.507C761.979,742.382 764.84,742.319 768.579,742.319L768.579,766.853L780.669,766.853C780.669,770.42 780.629,773.037 780.548,774.704C780.467,776.372 780.238,777.455 779.86,777.954C779.482,778.453 778.835,778.703 777.918,778.703L768.579,778.703L768.579,816.612C768.579,817.901 768.635,819.169 768.746,820.416C768.857,821.662 769.177,822.657 769.703,823.401C770.23,824.145 771.121,824.517 772.376,824.517C773.762,824.517 775.013,824.371 776.129,824.078C777.245,823.784 778.454,823.315 779.758,822.669C779.939,823.515 780.134,824.5 780.34,825.624C780.547,826.748 780.65,828.014 780.65,829.424C780.65,831.43 779.992,832.93 778.675,833.923C777.358,834.916 775.766,835.572 773.9,835.89C772.034,836.208 770.226,836.367 768.479,836.367Z" style="fill:rgb(0,112,186);fill-rule:nonzero;"/>
        <path d="M811.889,836.367C806.457,836.367 802.269,835.547 799.327,833.906C796.384,832.266 794.325,829.877 793.148,826.74C791.972,823.603 791.384,819.765 791.384,815.225L791.384,769.424C791.384,768.567 791.57,767.968 791.943,767.625C792.316,767.282 793.514,767.068 795.539,766.982C797.564,766.896 800.974,766.853 805.77,766.853L805.77,816.179C805.77,818.048 805.928,819.588 806.243,820.801C806.558,822.013 807.142,822.916 807.995,823.509C808.847,824.102 810.105,824.398 811.77,824.398C812.782,824.398 813.874,824.246 815.046,823.942C816.218,823.638 817.281,823.122 818.235,822.394L818.235,769.424C818.235,768.567 818.427,767.968 818.81,767.625C819.194,767.282 820.34,767.068 822.249,766.982C824.158,766.896 827.454,766.853 832.138,766.853L832.138,831.264C829.822,832.589 826.86,833.771 823.25,834.809C819.64,835.848 815.853,836.367 811.889,836.367Z" style="fill:rgb(0,112,186);fill-rule:nonzero;"/>
        <path d="M873.372,836.367C870.444,836.367 867.66,836.024 865.02,835.337C862.38,834.651 860.017,833.212 857.932,831.02C855.847,828.829 854.217,825.562 853.04,821.221C851.864,816.879 851.276,811.087 851.276,803.846C851.276,794.591 852.13,787.159 853.838,781.55C855.546,775.942 857.865,771.863 860.796,769.314C863.726,766.765 867.015,765.49 870.663,765.49C872.572,765.49 874.25,765.717 875.696,766.172C877.142,766.626 878.325,767.248 879.245,768.037L879.245,740.975C879.245,738.878 879.601,737.411 880.311,736.575C881.022,735.739 882.395,735.237 884.43,735.071C886.466,734.905 889.377,734.822 893.165,734.822L893.165,832.278C890.903,833.299 888.135,834.236 884.858,835.088C881.582,835.941 877.753,836.367 873.372,836.367ZM873.602,824.036C874.718,824.036 875.742,823.904 876.676,823.641C877.609,823.378 878.472,822.977 879.262,822.439L879.245,778.498C878.727,778.091 878.128,777.816 877.449,777.673C876.77,777.53 876.053,777.459 875.299,777.459C874.385,777.459 873.433,777.7 872.443,778.183C871.453,778.666 870.523,779.732 869.652,781.381C868.781,783.03 868.1,785.499 867.608,788.787C867.116,792.075 866.87,796.531 866.87,802.155C866.87,806.585 867.007,810.223 867.282,813.069C867.556,815.915 867.976,818.136 868.539,819.733C869.103,821.33 869.804,822.446 870.641,823.082C871.479,823.718 872.466,824.036 873.602,824.036Z" style="fill:rgb(0,112,186);fill-rule:nonzero;"/>
        <path d="M911.33,835.004L911.33,772.987C911.33,770.897 911.739,769.443 912.556,768.625C913.374,767.807 914.783,767.307 916.782,767.126C918.781,766.944 921.689,766.853 925.505,766.853L925.505,832.414C925.505,833.323 925.301,833.936 924.892,834.254C924.483,834.572 923.301,834.777 921.348,834.868C919.394,834.959 916.055,835.004 911.33,835.004ZM918.145,759.629C915.964,759.629 914.283,758.902 913.102,757.448C911.92,755.994 911.33,753.314 911.33,749.406C911.33,746.499 911.943,744.136 913.17,742.319C914.396,740.501 916.327,739.593 918.963,739.593C921.598,739.593 923.37,740.274 924.278,741.637C925.187,743 925.641,745.408 925.641,748.861C925.641,752.223 924.983,754.858 923.665,756.767C922.347,758.675 920.507,759.629 918.145,759.629Z" style="fill:rgb(0,112,186);fill-rule:nonzero;"/>
        <path d="M954.12,836.367C950.546,836.367 947.404,835.938 944.694,835.08C941.983,834.221 939.734,832.551 937.947,830.067C936.159,827.584 934.826,824.003 933.947,819.323C933.068,814.643 932.629,808.482 932.629,800.839C932.629,788.44 934.616,779.449 938.59,773.865C942.564,768.282 948.125,765.49 955.272,765.49C960.148,765.49 964.151,766.472 967.281,768.437C970.411,770.401 972.73,773.912 974.239,778.97C975.749,784.028 976.503,791.157 976.503,800.356C976.503,813.377 974.61,822.634 970.823,828.127C967.037,833.62 961.469,836.367 954.12,836.367ZM954.497,824.76C955.756,824.76 956.891,824.221 957.901,823.142C958.911,822.062 959.726,819.8 960.344,816.353C960.962,812.906 961.272,807.674 961.272,800.656C961.272,793.886 961.068,788.811 960.661,785.431C960.255,782.05 959.579,779.816 958.636,778.728C957.693,777.641 956.405,777.097 954.774,777.097C953.443,777.097 952.25,777.682 951.195,778.851C950.139,780.02 949.32,782.311 948.736,785.722C948.152,789.134 947.861,794.169 947.861,800.826C947.861,806.2 948.008,810.506 948.303,813.744C948.597,816.982 949.011,819.374 949.544,820.921C950.077,822.468 950.775,823.495 951.637,824.001C952.499,824.507 953.452,824.76 954.497,824.76Z" style="fill:rgb(0,112,186);fill-rule:nonzero;"/>
        <path d="M369.114,980.423C366.179,980.423 363.511,980.063 361.109,979.342C358.708,978.62 356.588,977.334 354.75,975.482C352.912,973.631 351.376,971 350.143,967.589C348.91,964.178 347.975,959.786 347.338,954.414C346.702,949.042 346.383,942.488 346.383,934.752C346.383,925.723 346.923,918.096 348.003,911.871C349.083,905.646 350.549,900.597 352.402,896.724C354.255,892.852 356.355,889.858 358.702,887.743C361.048,885.629 363.491,884.195 366.03,883.443C368.569,882.692 371.06,882.316 373.503,882.316C377.256,882.316 380.043,882.699 381.865,883.467C383.688,884.234 384.9,885.219 385.502,886.42C386.104,887.621 386.405,888.867 386.405,890.157C386.405,891.809 386.193,893.365 385.77,894.827C385.347,896.289 384.879,897.553 384.365,898.619C383.851,898.176 383.209,897.767 382.44,897.392C381.672,897.017 380.807,896.685 379.845,896.395C378.884,896.106 377.842,895.961 376.719,895.961C375.112,895.961 373.545,896.256 372.02,896.847C370.494,897.438 369.059,898.526 367.714,900.113C366.37,901.699 365.21,903.915 364.233,906.76C363.257,909.604 362.479,913.235 361.897,917.653C361.316,922.071 361.025,927.434 361.025,933.742C361.025,939.979 361.274,945.129 361.77,949.191C362.267,953.253 362.984,956.421 363.92,958.694C364.857,960.967 366.058,962.575 367.525,963.519C368.992,964.462 370.694,964.934 372.632,964.934C374.898,964.934 377.027,964.667 379.019,964.133C381.011,963.599 382.632,962.953 383.883,962.193C384.387,963.281 384.834,964.552 385.222,966.008C385.61,967.464 385.804,968.944 385.804,970.446C385.804,972.411 385.133,974.161 383.79,975.695C382.446,977.23 380.52,978.402 378.011,979.211C375.501,980.019 372.535,980.423 369.114,980.423Z" style="fill:rgb(0,112,186);fill-rule:nonzero;"/>
        <path d="M415.999,980.438C412.426,980.438 409.284,980.009 406.573,979.151C403.863,978.293 401.614,976.622 399.826,974.139C398.039,971.655 396.706,968.074 395.827,963.394C394.948,958.715 394.508,952.553 394.508,944.91C394.508,932.511 396.496,923.52 400.47,917.936C404.444,912.353 410.004,909.561 417.152,909.561C422.027,909.561 426.03,910.543 429.16,912.508C432.29,914.472 434.61,917.983 436.119,923.041C437.628,928.099 438.383,935.228 438.383,944.427C438.383,957.448 436.49,966.705 432.703,972.198C428.916,977.692 423.348,980.438 415.999,980.438ZM416.376,968.831C417.636,968.831 418.771,968.292 419.781,967.213C420.791,966.134 421.605,963.871 422.224,960.424C422.842,956.978 423.151,951.745 423.151,944.727C423.151,937.958 422.948,932.882 422.541,929.502C422.134,926.121 421.459,923.887 420.516,922.8C419.572,921.712 418.285,921.168 416.653,921.168C415.323,921.168 414.13,921.753 413.074,922.922C412.019,924.091 411.199,926.382 410.616,929.794C410.032,933.205 409.74,938.24 409.74,944.898C409.74,950.272 409.888,954.578 410.182,957.815C410.477,961.053 410.891,963.446 411.424,964.993C411.957,966.539 412.654,967.566 413.516,968.072C414.378,968.578 415.331,968.831 416.376,968.831Z" style="fill:rgb(0,112,186);fill-rule:nonzero;"/>
        <path d="M451.836,979.075L451.836,914.106C453.404,913.348 455.412,912.626 457.86,911.939C460.309,911.253 462.886,910.685 465.591,910.235C468.297,909.786 470.806,909.561 473.119,909.561C477.804,909.561 481.565,910.11 484.402,911.207C487.239,912.303 489.313,914.142 490.624,916.722C491.935,919.303 492.591,922.844 492.591,927.347L492.591,976.505C492.591,977.361 492.364,977.96 491.911,978.303C491.458,978.646 490.239,978.861 488.254,978.946C486.27,979.032 482.92,979.075 478.204,979.075L478.204,931.636C478.204,927.855 477.857,925.225 477.163,923.747C476.469,922.269 474.925,921.53 472.531,921.53C471.436,921.53 470.272,921.687 469.038,922.001C467.804,922.315 466.705,922.791 465.739,923.43L465.739,976.505C465.739,977.361 465.533,977.96 465.119,978.303C464.706,978.646 463.528,978.861 461.584,978.946C459.64,979.032 456.391,979.075 451.836,979.075Z" style="fill:rgb(0,112,186);fill-rule:nonzero;"/>
        <path d="M524.247,980.438C519.73,980.438 515.907,979.87 512.777,978.735C509.647,977.599 508.082,975.61 508.082,972.769C508.082,971.75 508.251,970.553 508.589,969.177C508.927,967.802 509.525,966.369 510.382,964.879C512.31,965.919 514.325,966.697 516.426,967.213C518.528,967.728 520.646,967.986 522.781,967.986C525.516,967.986 527.583,967.404 528.982,966.24C530.381,965.075 531.081,963.465 531.081,961.409C531.081,960.13 530.847,958.782 530.379,957.366C529.911,955.95 528.877,954.428 527.277,952.801L514.985,940.647C512.385,938.092 510.575,935.569 509.555,933.077C508.535,930.584 508.025,928.297 508.025,926.216C508.025,923.035 508.76,920.194 510.23,917.69C511.7,915.187 514.076,913.207 517.358,911.749C520.64,910.29 525.005,909.561 530.453,909.561C535.406,909.561 539.078,910.028 541.467,910.962C543.855,911.895 545.429,912.997 546.188,914.268C546.947,915.539 547.327,916.729 547.327,917.84C547.327,920.248 546.394,922.515 544.528,924.642C542.628,923.559 540.671,922.769 538.655,922.274C536.64,921.778 534.51,921.53 532.265,921.53C529.744,921.53 527.813,921.961 526.473,922.822C525.134,923.683 524.464,924.89 524.464,926.441C524.464,927.313 524.725,928.288 525.247,929.364C525.768,930.441 526.986,931.904 528.898,933.753L539.804,944.005C542.613,947.012 544.52,949.738 545.527,952.182C546.534,954.627 547.037,957.575 547.037,961.028C547.037,967.095 544.988,971.847 540.889,975.283C536.791,978.72 531.244,980.438 524.247,980.438Z" style="fill:rgb(0,112,186);fill-rule:nonzero;"/>
        <path d="M584.673,980.438C579.241,980.438 575.054,979.618 572.111,977.977C569.169,976.337 567.109,973.948 565.933,970.811C564.756,967.674 564.168,963.836 564.168,959.297L564.168,913.495C564.168,912.639 564.355,912.039 564.727,911.696C565.1,911.353 566.299,911.139 568.323,911.053C570.348,910.967 573.758,910.924 578.555,910.924L578.555,960.251C578.555,962.119 578.712,963.66 579.027,964.872C579.343,966.085 579.926,966.987 580.779,967.58C581.632,968.173 582.89,968.469 584.554,968.469C585.566,968.469 586.659,968.317 587.831,968.014C589.003,967.71 590.066,967.194 591.02,966.465L591.02,913.495C591.02,912.639 591.212,912.039 591.595,911.696C591.978,911.353 593.124,911.139 595.033,911.053C596.942,910.967 600.239,910.924 604.923,910.924L604.923,975.336C602.607,976.66 599.644,977.842 596.034,978.88C592.424,979.919 588.637,980.438 584.673,980.438Z" style="fill:rgb(0,112,186);fill-rule:nonzero;"/>
        <path d="M625.941,979.075L625.941,885.046C625.941,882.949 626.314,881.482 627.059,880.646C627.804,879.81 629.192,879.309 631.223,879.143C633.253,878.976 636.127,878.893 639.844,878.893L639.844,976.505C639.844,977.361 639.651,977.96 639.264,978.303C638.878,978.646 637.72,978.861 635.789,978.946C633.858,979.032 630.575,979.075 625.941,979.075Z" style="fill:rgb(0,112,186);fill-rule:nonzero;"/>
        <path d="M668.024,980.438C664.067,980.438 661.097,979.663 659.114,978.112C657.132,976.56 655.82,974.305 655.181,971.347C654.541,968.388 654.221,964.899 654.221,960.879L654.221,922.774L645.685,922.774C645.685,919.196 645.728,916.576 645.814,914.914C645.9,913.252 646.155,912.172 646.578,911.673C647.001,911.174 647.671,910.924 648.588,910.924L654.221,910.924L654.221,890.852C654.221,889.318 654.611,888.254 655.392,887.659C656.172,887.064 657.554,886.704 659.539,886.578C661.524,886.453 664.386,886.39 668.124,886.39L668.124,910.924L680.215,910.924C680.215,914.491 680.174,917.108 680.093,918.776C680.012,920.443 679.783,921.526 679.405,922.025C679.028,922.525 678.38,922.774 677.463,922.774L668.124,922.774L668.124,960.683C668.124,961.972 668.18,963.24 668.291,964.487C668.403,965.733 668.722,966.729 669.249,967.473C669.775,968.217 670.666,968.589 671.921,968.589C673.307,968.589 674.558,968.442 675.674,968.149C676.79,967.856 678,967.386 679.303,966.74C679.485,967.586 679.679,968.571 679.886,969.695C680.092,970.819 680.195,972.086 680.195,973.495C680.195,975.502 679.537,977.001 678.22,977.995C676.903,978.988 675.312,979.643 673.445,979.961C671.579,980.279 669.772,980.438 668.024,980.438Z" style="fill:rgb(0,112,186);fill-rule:nonzero;"/>
        <path d="M691.338,979.075L691.338,917.058C691.338,914.968 691.747,913.514 692.565,912.696C693.383,911.878 694.791,911.379 696.79,911.197C698.789,911.015 701.697,910.924 705.514,910.924L705.514,976.486C705.514,977.394 705.309,978.008 704.9,978.326C704.491,978.644 703.31,978.848 701.356,978.939C699.403,979.03 696.063,979.075 691.338,979.075ZM698.153,903.7C695.972,903.7 694.291,902.973 693.11,901.519C691.929,900.066 691.338,897.385 691.338,893.478C691.338,890.57 691.951,888.207 693.178,886.39C694.405,884.573 696.336,883.664 698.971,883.664C701.606,883.664 703.378,884.345 704.287,885.708C705.196,887.071 705.65,889.479 705.65,892.932C705.65,896.295 704.991,898.93 703.673,900.838C702.356,902.746 700.516,903.7 698.153,903.7Z" style="fill:rgb(0,112,186);fill-rule:nonzero;"/>
        <path d="M714.627,979.075L714.627,914.106C716.194,913.348 718.202,912.626 720.651,911.939C723.099,911.253 725.676,910.685 728.381,910.235C731.087,909.786 733.596,909.561 735.909,909.561C740.594,909.561 744.355,910.11 747.192,911.207C750.029,912.303 752.103,914.142 753.414,916.722C754.725,919.303 755.381,922.844 755.381,927.347L755.381,976.505C755.381,977.361 755.154,977.96 754.702,978.303C754.249,978.646 753.03,978.861 751.045,978.946C749.06,979.032 745.71,979.075 740.995,979.075L740.995,931.636C740.995,927.855 740.648,925.225 739.953,923.747C739.259,922.269 737.715,921.53 735.321,921.53C734.226,921.53 733.062,921.687 731.828,922.001C730.595,922.315 729.495,922.791 728.529,923.43L728.529,976.505C728.529,977.361 728.323,977.96 727.91,978.303C727.497,978.646 726.318,978.861 724.374,978.946C722.431,979.032 719.181,979.075 714.627,979.075Z" style="fill:rgb(0,112,186);fill-rule:nonzero;"/>
        <path d="M791.712,1005.82C785.564,1005.82 780.905,1005.04 777.736,1003.48C774.566,1001.91 772.436,999.96 771.345,997.623C770.255,995.286 769.71,992.972 769.71,990.68C769.71,987.39 770.613,984.405 772.42,981.725C774.226,979.044 776.595,976.714 779.527,974.734C782.458,972.754 785.649,971.27 789.099,970.282L793.652,974.318C792.045,974.985 790.503,975.981 789.026,977.306C787.55,978.63 786.358,980.139 785.453,981.832C784.547,983.525 784.094,985.307 784.094,987.177C784.094,988.369 784.344,989.421 784.846,990.332C785.347,991.243 786.271,991.936 787.617,992.413C788.964,992.889 790.812,993.127 793.162,993.127C797.01,993.127 799.702,992.106 801.238,990.064C802.774,988.021 803.542,986.058 803.542,984.174C803.542,982.464 803.196,981.102 802.502,980.086C801.808,979.07 800.361,978.267 798.16,977.676C795.958,977.085 792.584,976.654 788.036,976.381C784.66,976.077 781.729,975.577 779.246,974.88C776.762,974.183 774.857,973.201 773.531,971.933C772.206,970.666 771.583,969.124 771.663,967.307C771.744,965.783 772.194,964.241 773.013,962.681C773.832,961.12 775.082,959.487 776.763,957.781C778.444,956.075 780.535,954.33 783.035,952.545L791.35,955.237C791.174,955.331 790.691,955.78 789.902,956.584C789.112,957.389 788.353,958.314 787.625,959.359C786.897,960.405 786.532,961.393 786.532,962.323C786.532,963.455 787.8,964.15 790.335,964.41C792.87,964.67 795.98,965.083 799.664,965.65C803.479,966.254 806.712,967.167 809.362,968.387C812.012,969.608 814.062,971.31 815.512,973.495C816.963,975.681 817.688,978.59 817.688,982.225C817.688,986.503 816.791,990.436 814.998,994.023C813.205,997.61 810.415,1000.47 806.629,1002.61C802.844,1004.75 797.871,1005.82 791.712,1005.82ZM793.273,958.085C787.93,958.085 783.714,957.067 780.624,955.032C777.535,952.997 775.327,950.217 774,946.693C772.673,943.169 772.01,939.201 772.01,934.79C772.01,928.472 772.951,923.478 774.835,919.808C776.718,916.139 779.381,913.514 782.824,911.933C786.268,910.352 790.305,909.561 794.936,909.561C796.088,909.561 797.366,909.695 798.77,909.963C800.174,910.23 801.512,910.631 802.784,911.165L805.444,917.271C808.434,918.664 810.833,920.812 812.642,923.715C814.45,926.619 815.354,930.499 815.354,935.356C815.354,940.222 814.604,944.337 813.105,947.701C811.606,951.066 809.243,953.637 806.017,955.416C802.791,957.195 798.543,958.085 793.273,958.085ZM793.925,947.685C795.618,947.685 797.003,947.209 798.078,946.256C799.152,945.304 799.963,943.654 800.511,941.308C801.058,938.962 801.332,935.77 801.332,931.732C801.332,927.234 800.786,924.067 799.694,922.231C798.602,920.395 796.815,919.477 794.333,919.477C792.904,919.477 791.604,919.927 790.433,920.828C789.262,921.728 788.357,923.242 787.718,925.37C787.078,927.499 786.758,930.447 786.758,934.217C786.758,937.407 786.966,940.009 787.381,942.021C787.796,944.034 788.516,945.481 789.541,946.363C790.565,947.245 792.026,947.685 793.925,947.685ZM814.992,922.665C813.629,922.665 811.913,922.361 809.845,921.751C807.777,921.141 805.714,920.431 803.656,919.621C801.598,918.811 799.893,918.101 798.542,917.492C797.19,916.883 796.514,916.579 796.514,916.579L796.697,910.726L817.988,910.726C818.39,911.45 818.737,912.366 819.03,913.475C819.322,914.583 819.468,915.928 819.468,917.509C819.468,919.344 819.047,920.662 818.206,921.463C817.364,922.265 816.292,922.665 814.992,922.665Z" style="fill:rgb(0,112,186);fill-rule:nonzero;"/>
    </g>
</svg>
